<?xml version="1.0" standalone="no"?><!DOCTYPE svg PUBLIC "-//W3C//DTD SVG 1.1//EN" "http://www.w3.org/Graphics/SVG/1.1/DTD/svg11.dtd"><svg t="1526060937545" class="icon" style="" viewBox="0 0 1024 1024" version="1.1" xmlns="http://www.w3.org/2000/svg" p-id="659" xmlns:xlink="http://www.w3.org/1999/xlink" width="200" height="200"><defs><style type="text/css"></style></defs><path d="M821.006238 311.941592 676.612617 311.941592c16.20917-9.117658 31.241538-19.839861 43.922349-31.655977 57.910944-53.992705 68.387553-131.781372 23.331381-173.793208-18.86465-17.564028-44.490284-26.072819-72.145134-26.072819-38.378076 0-80.693834 16.396435-114.40154 47.778166-19.507286 18.187221-36.266995 41.546232-48.206932 66.13014-11.943007-24.583908-28.708855-47.942919-48.222281-66.13014-33.686217-31.381731-76.002998-47.778166-114.400516-47.778166-27.655873 0-53.261041 8.507768-72.124667 26.072819-45.037752 42.011836-34.559097 119.801527 23.350824 173.793208 12.673647 11.815093 27.697829 22.537296 43.898813 31.655977L197.224362 311.941592c-34.316573 0-62.377676 28.062126-62.377676 62.378699l0 218.323401 343.078753 0L477.925439 339.512531c11.449773-3.091408 21.550829-8.252964 29.646204-15.793708 0.529049-0.493234 1.036609-1.001817 1.543146-1.511423 0.50756 0.508583 1.01512 1.01819 1.544169 1.511423 8.095375 7.540743 18.195408 12.701277 29.646204 15.793708l0 253.131161 343.079776 0L883.384937 374.320291C883.383914 340.003717 855.321788 311.941592 821.006238 311.941592zM464.443379 276.874935c-0.020466 0.020466-4.202719 2.619664-15.899108 2.619664-33.240055 0-79.434144-19.717064-107.435894-45.788859-22.904663-21.361517-31.066553-45.027519-31.066553-60.062957 0-13.381775 5.826705-18.803251 7.736195-20.549012 8.426927-7.857968 21.605064-9.015328 28.711925-9.015328 23.837918 0 50.377364 11.482519 71.027683 30.680766C456.524013 211.125465 469.885322 266.030959 464.443379 276.874935zM554.761408 277.747815c-0.020466 0-0.061398 0.040932-0.061398 0.040932-6.152117-12.548804 7.269567-66.905806 46.012963-103.029538 20.649296-19.199271 47.188742-30.680766 71.00824-30.680766 7.14677 0 20.304442 1.157359 28.731368 9.015328 1.928932 1.77646 7.737218 7.198959 7.737218 20.589944 0 15.026228-8.123005 38.661531-31.04711 60.023048-28.001751 26.071795-74.215282 45.788859-107.456361 45.788859C560.081577 279.493575 555.552423 277.747815 554.761408 277.747815zM540.304138 935.721421l280.7021 0c34.31555 0 62.377676-28.062126 62.377676-62.377676L883.383914 655.021368 540.304138 655.021368 540.304138 935.721421zM134.846686 873.343745c0 34.31555 28.061103 62.377676 62.377676 62.377676l280.701077 0L477.925439 655.021368 134.846686 655.021368 134.846686 873.343745z" p-id="660"></path></svg>